<svg xmlns="http://www.w3.org/2000/svg" width="29.167" height="35" viewBox="0 0 29.167 35">
  <path id="fi-rr-book" d="M23.875,0H9.292A7.3,7.3,0,0,0,2,7.292V29.167A5.833,5.833,0,0,0,7.833,35H23.875a7.3,7.3,0,0,0,7.292-7.292V7.292A7.3,7.3,0,0,0,23.875,0ZM28.25,7.292V23.333H10.75V2.917H23.875A4.375,4.375,0,0,1,28.25,7.292ZM7.833,3.167V23.333a5.8,5.8,0,0,0-2.917.783V7.292A4.375,4.375,0,0,1,7.833,3.168ZM23.875,32.083H7.833a2.917,2.917,0,1,1,0-5.833H28.25v1.458A4.375,4.375,0,0,1,23.875,32.083Z" transform="translate(-2)" fill="#00a5ff"/>
</svg>
