<svg xmlns="http://www.w3.org/2000/svg" width="16" height="14" viewBox="0 0 16 14">
  <path id="fi-rr-envelope" d="M12.667,1H3.333A3.264,3.264,0,0,0,0,4.182v7.636A3.264,3.264,0,0,0,3.333,15h9.333A3.264,3.264,0,0,0,16,11.818V4.182A3.264,3.264,0,0,0,12.667,1ZM3.333,2.273h9.333a2,2,0,0,1,1.853,1.2L9.415,8.347a2.073,2.073,0,0,1-2.829,0L1.48,3.474a2,2,0,0,1,1.853-1.2Zm9.333,11.455H3.333a1.956,1.956,0,0,1-2-1.909V5.136L5.643,9.247a3.452,3.452,0,0,0,4.715,0l4.309-4.111v6.682A1.956,1.956,0,0,1,12.667,13.727Z" transform="translate(0 -1)" fill="#fff"/>
</svg>
