<svg id="fi-rr-interrogation" xmlns="http://www.w3.org/2000/svg" width="35" height="35" viewBox="0 0 35 35">
  <path id="Path_293" data-name="Path 293" d="M17.5,0A17.5,17.5,0,1,0,35,17.5,17.5,17.5,0,0,0,17.5,0Zm0,32.083A14.583,14.583,0,1,1,32.083,17.5,14.583,14.583,0,0,1,17.5,32.083Z" transform="translate(0 0)" fill="#00a5ff"/>
  <path id="Path_294" data-name="Path 294" d="M14.879,5.093A5.833,5.833,0,0,0,8,10.834a1.458,1.458,0,1,0,2.917,0,2.917,2.917,0,0,1,3.458-2.869,2.952,2.952,0,0,1,2.333,2.326,2.917,2.917,0,0,1-1.458,3.1,5.766,5.766,0,0,0-2.874,5.11v1.084a1.458,1.458,0,0,0,2.917,0V18.5a2.89,2.89,0,0,1,1.356-2.555A5.833,5.833,0,0,0,14.879,5.093Z" transform="translate(3.667 2.291)" fill="#00a5ff"/>
  <rect id="Rectangle_235" data-name="Rectangle 235" width="3" height="3" rx="1.5" transform="translate(16 25)" fill="#00a5ff"/>
</svg>
