<svg xmlns="http://www.w3.org/2000/svg" width="740.118" height="458.45" viewBox="0 0 740.118 458.45">
  <g id="Image" transform="translate(-50.72 -50.672)">
    <g id="freepik--background-complete--inject-18" transform="translate(58.461 51.16)">
      <rect id="Rectangle_238" data-name="Rectangle 238" width="147.459" height="99.371" transform="translate(497.526 0.011)" fill="#fff" stroke="#d9f2ff" stroke-miterlimit="10" stroke-width="1"/>
      <path id="Path_535" data-name="Path 535" d="M509.92,57.69a3.4,3.4,0,1,1-3.4-3.4,3.4,3.4,0,0,1,3.4,3.4Z" transform="translate(1.864 -50.165)" fill="#3e5570"/>
      <path id="Path_536" data-name="Path 536" d="M522.15,57.69a3.4,3.4,0,1,1-3.4-3.4,3.4,3.4,0,0,1,3.4,3.4Z" transform="translate(3.494 -50.165)" fill="#ebebeb"/>
      <path id="Path_537" data-name="Path 537" d="M534.39,57.69a3.4,3.4,0,1,1-3.4-3.4,3.4,3.4,0,0,1,3.4,3.4Z" transform="translate(5.126 -50.165)" fill="#00a5ff"/>
      <line id="Line_13" data-name="Line 13" x2="147.471" transform="translate(497.526 14.983)" fill="none" stroke="#d9f2ff" stroke-miterlimit="10" stroke-width="1"/>
      <path id="Path_538" data-name="Path 538" d="M66.83,51.4V263.652H229.238V51.4ZM224.954,259.368H71.114V55.684h153.84Z" transform="translate(-56.313 -50.55)" fill="#f1f5ff"/>
      <path id="Path_539" data-name="Path 539" d="M224.45,55.18V258.864H151.338V56.291h-4.273V258.864H70.61V55.18Z" transform="translate(-55.809 -50.046)" fill="#fff"/>
      <rect id="Rectangle_239" data-name="Rectangle 239" width="4.273" height="204.716" transform="translate(91.257 6.245)" fill="#f1f5ff"/>
      <rect id="Rectangle_240" data-name="Rectangle 240" width="170.171" height="5.961" transform="translate(176.813 15.47) rotate(180)" fill="#f1f5ff"/>
      <rect id="Rectangle_241" data-name="Rectangle 241" width="170.171" height="5.961" transform="translate(176.813 22.18) rotate(180)" fill="#f1f5ff"/>
      <rect id="Rectangle_242" data-name="Rectangle 242" width="170.171" height="5.961" transform="translate(176.813 28.889) rotate(180)" fill="#f1f5ff"/>
      <rect id="Rectangle_243" data-name="Rectangle 243" width="170.171" height="5.961" transform="translate(176.813 35.598) rotate(180)" fill="#f1f5ff"/>
      <rect id="Rectangle_244" data-name="Rectangle 244" width="170.171" height="5.961" transform="translate(176.813 42.296) rotate(180)" fill="#f1f5ff"/>
      <rect id="Rectangle_245" data-name="Rectangle 245" width="170.171" height="5.961" transform="translate(176.813 49.006) rotate(180)" fill="#f1f5ff"/>
      <rect id="Rectangle_246" data-name="Rectangle 246" width="170.171" height="5.961" transform="translate(176.813 55.715) rotate(180)" fill="#f1f5ff"/>
      <rect id="Rectangle_247" data-name="Rectangle 247" width="170.171" height="5.961" transform="translate(176.813 62.425) rotate(180)" fill="#f1f5ff"/>
      <rect id="Rectangle_248" data-name="Rectangle 248" width="170.171" height="5.961" transform="translate(176.813 69.134) rotate(180)" fill="#f1f5ff"/>
      <rect id="Rectangle_249" data-name="Rectangle 249" width="1.065" height="137.452" transform="translate(19.357 8.296)" fill="#3e5570"/>
      <path id="Path_540" data-name="Path 540" d="M73.43,184.293h3.8l-.952-5.463H74.382Z" transform="translate(-55.433 -33.558)" fill="#3e5570"/>
      <rect id="Rectangle_250" data-name="Rectangle 250" width="1.065" height="198.845" transform="translate(15.504 8.296)" fill="#3e5570"/>
      <path id="Path_541" data-name="Path 541" d="M70.03,237.6h3.8l-.952-5.463h-1.9Z" transform="translate(-55.886 -26.45)" fill="#263238"/>
      <rect id="Rectangle_251" data-name="Rectangle 251" width="183.454" height="12.478" transform="translate(183.454 12.478) rotate(180)" fill="#d9f2ff"/>
      <path id="Path_542" data-name="Path 542" d="M717.3,319.235H518.138L513.99,237.51H721.448Z" transform="translate(3.313 -25.734)" fill="#f1f5ff"/>
      <path id="Path_543" data-name="Path 543" d="M524.37,245.49h86.644l-1.553,28.334H526.217Zm85.59,1H525.435l1.7,26.362h81.374Z" transform="translate(4.697 -24.669)" fill="#dbdbdb"/>
      <path id="Path_544" data-name="Path 544" d="M525.92,276.72h81.34l-1.269,25.614H527.518Zm80.286,1.009H526.985l1.485,23.6h76.557Z" transform="translate(4.904 -20.505)" fill="#dbdbdb"/>
      <path id="Path_545" data-name="Path 545" d="M554.86,254.68h15.754l-.884,6.8H555.744Zm14.609,1.009H556l.623,4.828h12.218Z" transform="translate(8.763 -23.444)" fill="#dbdbdb"/>
      <path id="Path_546" data-name="Path 546" d="M554.86,285h15.754l-.884,6.8H555.744Zm14.609,1.009H556l.623,4.828h12.218Z" transform="translate(8.763 -19.401)" fill="#dbdbdb"/>
      <path id="Path_547" data-name="Path 547" d="M610.79,245.49h86.644l-1.564,28.334H612.615Zm85.59,1H611.855l1.7,26.362H694.9Z" transform="translate(16.221 -24.669)" fill="#a1dcff"/>
      <path id="Path_548" data-name="Path 548" d="M612.34,276.72h81.34l-1.258,25.614H613.938Zm80.286,1.009H613.405l1.473,23.6h76.569Z" transform="translate(16.427 -20.505)" fill="#a1dcff"/>
      <path id="Path_549" data-name="Path 549" d="M641.28,254.68h15.753l-.884,6.8H642.164Zm14.609,1.009H642.425l.623,4.828h12.217Z" transform="translate(20.286 -23.444)" fill="#a1dcff"/>
      <path id="Path_550" data-name="Path 550" d="M641.28,285h15.753l-.884,6.8H642.164Zm14.609,1.009H642.425l.623,4.828h12.217Z" transform="translate(20.286 -19.401)" fill="#a1dcff"/>
      <path id="Path_551" data-name="Path 551" d="M677.62,309.62l1.258,8.908,2.516,17.884H686.3V309.62Z" transform="translate(25.132 -16.118)" fill="#f1f5ff"/>
      <path id="Path_552" data-name="Path 552" d="M677.62,309.62l1.258,8.908H686.3V309.62Z" transform="translate(25.132 -16.118)" fill="#a1dcff"/>
      <path id="Path_553" data-name="Path 553" d="M534.433,309.62l-1.258,8.908-2.516,17.884H525.74V309.62Z" transform="translate(4.88 -16.118)" fill="#ebebeb"/>
      <path id="Path_554" data-name="Path 554" d="M534.433,309.62l-1.258,8.908H525.74V309.62Z" transform="translate(4.88 -16.118)" fill="#dbdbdb"/>
      <rect id="Rectangle_252" data-name="Rectangle 252" width="38.364" height="9.656" transform="translate(699.669 173.39) rotate(90)" fill="#61c6ff"/>
      <rect id="Rectangle_253" data-name="Rectangle 253" width="4.216" height="9.656" transform="translate(699.658 171.339) rotate(90)" fill="#d9f2ff"/>
      <rect id="Rectangle_254" data-name="Rectangle 254" width="1.564" height="9.656" transform="translate(699.669 180.949) rotate(90)" fill="#d9f2ff"/>
      <rect id="Rectangle_255" data-name="Rectangle 255" width="4.216" height="9.656" transform="translate(699.658 202.506) rotate(90)" fill="#d9f2ff"/>
      <rect id="Rectangle_256" data-name="Rectangle 256" width="44.756" height="6.755" transform="translate(690.002 167.009) rotate(90)" fill="#a1dcff"/>
      <rect id="Rectangle_257" data-name="Rectangle 257" width="17.215" height="4.057" transform="translate(688.687 171.203) rotate(90)" fill="#61c6ff"/>
      <rect id="Rectangle_258" data-name="Rectangle 258" width="44.756" height="6.755" transform="matrix(-0.711, 0.703, -0.703, -0.711, 671.743, 180.287)" fill="#c7c7c7"/>
      <rect id="Rectangle_259" data-name="Rectangle 259" width="17.215" height="4.057" transform="matrix(-0.711, 0.703, -0.703, -0.711, 658.678, 191.292)" fill="#dbdbdb"/>
      <rect id="Rectangle_260" data-name="Rectangle 260" width="33.989" height="11.469" transform="translate(683.258 177.765) rotate(90)" fill="#61c6ff"/>
      <rect id="Rectangle_261" data-name="Rectangle 261" width="3.173" height="11.469" transform="translate(683.258 204.988) rotate(90)" fill="#00a5ff"/>
      <rect id="Rectangle_262" data-name="Rectangle 262" width="1.224" height="11.469" transform="translate(683.247 201.69) rotate(90)" fill="#00a5ff"/>
      <rect id="Rectangle_263" data-name="Rectangle 263" width="31.949" height="7.922" transform="translate(706.823 179.309) rotate(66.77)" fill="#a1dcff"/>
      <rect id="Rectangle_264" data-name="Rectangle 264" width="2.981" height="7.922" transform="translate(716.913 202.804) rotate(66.77)" fill="#61c6ff"/>
      <rect id="Rectangle_265" data-name="Rectangle 265" width="2.981" height="7.922" transform="translate(709.426 185.348) rotate(66.77)" fill="#61c6ff"/>
      <rect id="Rectangle_266" data-name="Rectangle 266" width="1.156" height="7.922" transform="translate(711.409 189.963) rotate(66.77)" fill="#61c6ff"/>
    </g>
    <g id="freepik--Shadow--inject-18" transform="translate(524.661 469.907)">
      <ellipse id="Ellipse_23" data-name="Ellipse 23" cx="133.088" cy="19.607" rx="133.088" ry="19.607" fill="#f1f5ff"/>
    </g>
    <g id="freepik--Plant--inject-18" transform="translate(64.751 199.73)">
      <path id="Path_555" data-name="Path 555" d="M102.67,283.31s9.928-35.655,17.861-47.77S143.2,210.13,143.2,210.13,142.915,265.108,102.67,283.31Z" transform="translate(-57.824 -178.532)" fill="#00a5ff"/>
      <path id="Path_556" data-name="Path 556" d="M103.3,281.007a171.591,171.591,0,0,0,9.067-17.284,120.2,120.2,0,0,1,4.93-18.757.092.092,0,0,1,.17.068c-1.315,5.667-2.845,11.22-4.239,16.83,4.012-8.67,7.82-17.465,12.6-25.67a54.8,54.8,0,0,1,4.6-11.413c0-.1.227,0,.17.068a73.519,73.519,0,0,0-3.094,8.557,86.066,86.066,0,0,1,7.548-10.427c.17-.2.521,0,.351.238-6.392,8.16-10.8,17.431-14.994,26.815a143.315,143.315,0,0,0,12.467-15.583c0-.057.125,0,.091.068a130.064,130.064,0,0,1-13.351,17.306c-3.06,6.879-6.063,13.781-9.713,20.321,7.287-6.154,12.886-14.121,18.439-21.806a.163.163,0,1,1,.272.181c-5.553,8.443-11.333,16.388-19.267,22.667a87.176,87.176,0,0,1-5.338,8.33.439.439,0,0,1-.714-.51Z" transform="translate(-57.751 -176.83)" fill="#61c6ff"/>
      <path id="Path_557" data-name="Path 557" d="M101.314,290.246s17.861-32.867,12.671-64.759S103.24,182.25,103.24,182.25,75.111,231.834,101.314,290.246Z" transform="translate(-59.493 -182.25)" fill="#00a5ff"/>
      <path id="Path_558" data-name="Path 558" d="M93.5,236.72a155.846,155.846,0,0,0,6.891,26.543q.079-17.544.589-35.134a90.306,90.306,0,0,1-3.4-21.794c0-.215.306-.2.329,0a124.441,124.441,0,0,0,3.128,18.746q.408-14.484.941-28.946a.125.125,0,1,1,.249,0c0,15.073,0,30.158-.1,45.232a121,121,0,0,0,5.157-17.918c0-.057.1,0,.1,0a69.9,69.9,0,0,1-5.27,20.4q-.1,14.461-.385,28.912c3.015-10.2,6.245-20.162,7.117-31a.113.113,0,1,1,.227,0c-.238,11.934-3.321,24.061-7.253,35.281a.589.589,0,0,1-.2.283c-.091,3.525-.181,7.049-.306,10.563a.4.4,0,0,1-.782,0q-.2-10.812-.17-21.613a96.9,96.9,0,0,1-7.049-29.6.1.1,0,0,1,.193.045Z" transform="translate(-59.072 -180.415)" fill="#61c6ff"/>
      <path id="Path_559" data-name="Path 559" d="M94.606,227.457a60.68,60.68,0,0,1,1.247,8.681.085.085,0,0,1-.17,0,60.316,60.316,0,0,1-1.462-8.659C94.186,227.276,94.56,227.242,94.606,227.457Z" transform="translate(-58.951 -176.241)" fill="#61c6ff"/>
      <path id="Path_560" data-name="Path 560" d="M103.884,206.238c0-.1.17-.068.17,0a21.873,21.873,0,0,1-.9,6c0,.159-.272.091-.238-.068C103.306,210.2,103.555,208.244,103.884,206.238Z" transform="translate(-57.791 -179.06)" fill="#263238"/>
      <path id="Path_561" data-name="Path 561" d="M98.347,288.835s.737-34.329-9.067-51.386S63.1,211.7,63.1,211.7,69.639,272.2,98.347,288.835Z" transform="translate(-63.1 -178.323)" fill="#00a5ff"/>
      <path id="Path_562" data-name="Path 562" d="M79.295,258.035a126.377,126.377,0,0,0,13.328,16.887q-2.958-10.517-6.8-20.695c-5.519-4.839-10.993-9.86-14.382-16.479a.1.1,0,0,1,.17-.1c3.638,5.871,8.511,10.563,13.6,15.073A265.2,265.2,0,0,0,71.5,222.879a.219.219,0,0,1,.374-.227,163.07,163.07,0,0,1,8.6,15.674c-.929-3.672-1.666-7.423-2.607-11.073,0-.1.113-.136.159,0a61.95,61.95,0,0,1,4.035,14.552A174.747,174.747,0,0,1,90.73,265.3c-.249-5.145-.578-10.279-1.133-15.4a.091.091,0,0,1,.17,0,83.426,83.426,0,0,1,1.575,17.227c1.417,5.123,2.618,10.291,3.57,15.5,0,.147-.181.2-.215.068-.533-2.187-1.133-4.363-1.7-6.517h-.113c-5.281-5.293-10.3-11.333-13.6-18.065C79.227,258.024,79.272,258,79.295,258.035Z" transform="translate(-61.988 -176.877)" fill="#61c6ff"/>
      <path id="Path_563" data-name="Path 563" d="M68.32,229.224c1.133,1.133,2.108,2.425,3.162,3.649a28.1,28.1,0,0,1,2.845,3.309.057.057,0,0,1-.079.079,16.684,16.684,0,0,1-3.275-3.23,27.526,27.526,0,0,1-2.8-3.695.093.093,0,1,1,.147-.113Z" transform="translate(-62.426 -175.991)" fill="#61c6ff"/>
      <path id="Path_564" data-name="Path 564" d="M125.008,276.06l-1.235,16.263-3.74,49.142H87.427l-3.74-49.142L82.44,276.06h42.568Z" transform="translate(-60.521 -169.741)" fill="#3e5570"/>
      <path id="Path_565" data-name="Path 565" d="M125.008,276.06l-1.235,16.263H83.687L82.44,276.06Z" transform="translate(-60.521 -169.741)" fill="#01126c"/>
      <rect id="Rectangle_267" data-name="Rectangle 267" width="48.382" height="12.467" transform="translate(67.4 110.807) rotate(180)" fill="#3e5570"/>
    </g>
    <g id="freepik--Floor--inject-18" transform="translate(50.72 370.887)">
      <path id="Path_566" data-name="Path 566" d="M50.72,333.367l91.88-.283,91.88-.1,183.76-.181,183.76.181,91.88.1,91.88.283-91.88.272-91.88.1-183.76.193-183.76-.193-91.88-.1Z" transform="translate(-50.72 -332.8)" fill="#01126c"/>
    </g>
    <g id="freepik--Device--inject-18" transform="translate(122.053 100.483)">
      <rect id="Rectangle_268" data-name="Rectangle 268" width="469.952" height="314.367" transform="translate(61.212)" fill="#a1dcff"/>
      <rect id="Rectangle_269" data-name="Rectangle 269" width="463.129" height="306.694" transform="translate(64.623 3.842)" fill="#3e5570"/>
      <rect id="Rectangle_270" data-name="Rectangle 270" width="592.376" height="21.579" transform="translate(0 337.94)" fill="#a1dcff"/>
      <path id="Path_567" data-name="Path 567" d="M113.66,395.633l61.212-23.574H644.824l61.212,23.574Z" transform="translate(-113.66 -57.693)" fill="#d9f2ff"/>
      <path id="Path_568" data-name="Path 568" d="M172.49,387.281l39.5-15.221H592.019l39.5,15.221Z" transform="translate(-105.815 -57.693)" fill="#3e5570"/>
      <rect id="Rectangle_271" data-name="Rectangle 271" width="410.78" height="260.091" transform="translate(90.792 27.144)" fill="#fff"/>
      <rect id="Rectangle_272" data-name="Rectangle 272" width="410.78" height="10.007" transform="translate(90.792 27.144)" fill="#01126c"/>
      <path id="Path_569" data-name="Path 569" d="M201.074,123.292a2.482,2.482,0,1,1-2.482-2.482A2.482,2.482,0,0,1,201.074,123.292Z" transform="translate(-102.666 -91.196)" fill="#c7c7c7"/>
      <path id="Path_570" data-name="Path 570" d="M210.014,123.292a2.482,2.482,0,1,1-2.482-2.482A2.482,2.482,0,0,1,210.014,123.292Z" transform="translate(-101.474 -91.196)" fill="#fff"/>
      <path id="Path_571" data-name="Path 571" d="M218.954,123.292a2.482,2.482,0,1,1-2.482-2.482A2.482,2.482,0,0,1,218.954,123.292Z" transform="translate(-100.282 -91.196)" fill="#00a5ff"/>
    </g>
    <g id="freepik--Loading--inject-18" transform="translate(274.839 232.914)">
      <rect id="Rectangle_273" data-name="Rectangle 273" width="286.792" height="19.267" transform="translate(0 88.673)" fill="#d9f2ff"/>
      <rect id="Rectangle_274" data-name="Rectangle 274" width="155.925" height="12.421" transform="translate(3.139 92.299)" fill="#00a5ff"/>
      <path id="Path_572" data-name="Path 572" d="M332.253,265.8h2.414l-2.8,13.158h7.684l-.453,2.131H329Z" transform="translate(-237.732 -204.293)" fill="#3e5570"/>
      <path id="Path_573" data-name="Path 573" d="M344.488,281.2a5.089,5.089,0,0,1-2.357-.521,5.339,5.339,0,0,1-1.723-1.405,6.3,6.3,0,0,1-1.065-2.006,7.7,7.7,0,0,1-.363-2.391,8.32,8.32,0,0,1,.737-3.4,10.6,10.6,0,0,1,1.972-2.935,9.531,9.531,0,0,1,2.822-2.063,7.446,7.446,0,0,1,3.321-.782,4.987,4.987,0,0,1,2.357.544,5.191,5.191,0,0,1,1.711,1.417,6.427,6.427,0,0,1,1.043,2.04,7.933,7.933,0,0,1,.351,2.38,8.228,8.228,0,0,1-.725,3.4,10.3,10.3,0,0,1-1.949,2.924,9.839,9.839,0,0,1-2.811,2.063,7.617,7.617,0,0,1-3.321.737Zm.476-2.176a4.624,4.624,0,0,0,2.323-.612,6.563,6.563,0,0,0,1.859-1.587,7.571,7.571,0,0,0,1.235-2.187,6.947,6.947,0,0,0,.442-2.391,6.225,6.225,0,0,0-.227-1.666,4.535,4.535,0,0,0-.669-1.383,3.4,3.4,0,0,0-1.133-.952,3.082,3.082,0,0,0-1.507-.351,4.533,4.533,0,0,0-2.335.612,6.8,6.8,0,0,0-1.87,1.587,7.288,7.288,0,0,0-1.235,2.187,6.948,6.948,0,0,0-.442,2.391,6.245,6.245,0,0,0,.227,1.677,4.4,4.4,0,0,0,.657,1.371,3.151,3.151,0,0,0,1.133.952A3.185,3.185,0,0,0,344.964,279.028Z" transform="translate(-236.401 -204.307)" fill="#3e5570"/>
      <path id="Path_574" data-name="Path 574" d="M359.452,265.8h2.131l2.448,15.289h-2.539l-.6-4.159h-5.5l-2.346,4.159H350.51Zm1.349,9.339-.861-6.562-3.74,6.562Z" transform="translate(-234.864 -204.293)" fill="#3e5570"/>
      <path id="Path_575" data-name="Path 575" d="M367.321,265.8h5.191a6.528,6.528,0,0,1,2.55.453,4.669,4.669,0,0,1,1.768,1.247,5.214,5.214,0,0,1,1.043,1.87,7.344,7.344,0,0,1,.351,2.323,10.132,10.132,0,0,1-.68,3.751,9.065,9.065,0,0,1-1.87,2.969,8.625,8.625,0,0,1-2.845,1.961,8.885,8.885,0,0,1-3.57.714H364.08Zm2.391,13.158a5.452,5.452,0,0,0,2.493-.567,5.667,5.667,0,0,0,1.893-1.519,6.721,6.721,0,0,0,1.2-2.21,7.932,7.932,0,0,0,.419-2.6,5.916,5.916,0,0,0-.227-1.666,4.091,4.091,0,0,0-.691-1.3,3.253,3.253,0,0,0-1.133-.861,3.9,3.9,0,0,0-1.6-.306h-2.754l-2.346,11.027Z" transform="translate(-233.054 -204.294)" fill="#3e5570"/>
      <path id="Path_576" data-name="Path 576" d="M380.473,265.82h2.437l-3.253,15.266H377.22Z" transform="translate(-231.302 -204.291)" fill="#3e5570"/>
      <path id="Path_577" data-name="Path 577" d="M385.621,265.8h1.893l5.791,11.016,2.335-10.993h2.425l-3.253,15.266h-1.972l-5.757-10.767-2.267,10.767H382.38Z" transform="translate(-230.614 -204.293)" fill="#3e5570"/>
      <path id="Path_578" data-name="Path 578" d="M406.855,279.216a6.9,6.9,0,0,1-4.59,1.983,5.009,5.009,0,0,1-2.267-.5,5.293,5.293,0,0,1-1.711-1.371,6.019,6.019,0,0,1-1.133-2.029,7.934,7.934,0,0,1-.374-2.448,8.443,8.443,0,0,1,.737-3.4,9.792,9.792,0,0,1,1.961-2.935,9.544,9.544,0,0,1,2.811-2.017,7.412,7.412,0,0,1,3.275-.759,5.383,5.383,0,0,1,3.309.918,4.533,4.533,0,0,1,1.643,2.425l-2.108,1.337a3.264,3.264,0,0,0-1.235-1.881,3.638,3.638,0,0,0-2.142-.623,4.533,4.533,0,0,0-2.267.578,6.46,6.46,0,0,0-1.836,1.541,7.933,7.933,0,0,0-1.258,2.176,7.025,7.025,0,0,0-.453,2.493,5.929,5.929,0,0,0,.238,1.7,4.431,4.431,0,0,0,.714,1.383,3.4,3.4,0,0,0,1.133.941,3.218,3.218,0,0,0,1.485.34,6.415,6.415,0,0,0,4.477-2.267l.351-1.621H404.6l.385-1.779h5.009l-1.632,7.729h-2.029Z" transform="translate(-228.694 -204.302)" fill="#3e5570"/>
      <path id="Path_579" data-name="Path 579" d="M409.14,279.615l.589-2.765H411.7l-.6,2.765Z" transform="translate(-227.046 -202.82)" fill="#3e5570"/>
      <path id="Path_580" data-name="Path 580" d="M413.17,279.615l.578-2.765h1.983l-.6,2.765Z" transform="translate(-226.508 -202.82)" fill="#3e5570"/>
      <path id="Path_581" data-name="Path 581" d="M417.2,279.615l.578-2.765h1.983l-.6,2.765Z" transform="translate(-225.971 -202.82)" fill="#3e5570"/>
      <circle id="Ellipse_24" data-name="Ellipse 24" cx="3.423" cy="3.423" r="3.423" transform="translate(139.934)" fill="#00a5ff"/>
      <circle id="Ellipse_25" data-name="Ellipse 25" cx="3.015" cy="3.015" r="3.015" transform="translate(126.266 5.927)" fill="#00a5ff"/>
      <path id="Path_582" data-name="Path 582" d="M357.517,229.26a2.7,2.7,0,1,1-1.911.794,2.709,2.709,0,0,1,1.911-.794Z" transform="translate(-234.289 -209.166)" fill="#00a5ff"/>
      <path id="Path_583" data-name="Path 583" d="M360.73,242.717a2.267,2.267,0,1,1-.676,1.615A2.267,2.267,0,0,1,360.73,242.717Z" transform="translate(-233.591 -207.458)" fill="#00a5ff"/>
      <circle id="Ellipse_26" data-name="Ellipse 26" cx="1.802" cy="1.802" r="1.802" transform="translate(140.806 41.118)" fill="#00a5ff"/>
      <path id="Path_584" data-name="Path 584" d="M385.945,245.612a1.306,1.306,0,1,1,1.847-1.847,1.306,1.306,0,1,1-1.847,1.847Z" transform="translate(-230.19 -207.283)" fill="#00a5ff"/>
      <path id="Path_585" data-name="Path 585" d="M392.162,233.374a.952.952,0,1,1,.952-.952.952.952,0,0,1-.952.952Z" transform="translate(-229.437 -208.871)" fill="#00a5ff"/>
      <path id="Path_586" data-name="Path 586" d="M387.747,220.446a.68.68,0,1,1,0-.952.669.669,0,0,1,0,.952Z" transform="translate(-230.054 -210.495)" fill="#00a5ff"/>
    </g>
    <g id="freepik--Speedometer--inject-18" transform="translate(55.715 89.681)">
      <circle id="Ellipse_27" data-name="Ellipse 27" cx="110.864" cy="110.864" r="110.864" transform="translate(0 156.785) rotate(-45)" fill="#fff"/>
      <path id="Path_587" data-name="Path 587" d="M317.321,236.549a110.66,110.66,0,1,1-8.353-42.489,110.66,110.66,0,0,1,8.353,42.489Zm0,0a110.66,110.66,0,1,0-8.489,42.4,110.66,110.66,0,0,0,8.489-42.4Z" transform="translate(-49.679 -79.76)" fill="#263238"/>
      <path id="Path_588" data-name="Path 588" d="M273.947,230.236h-81.4L249.886,172.9a80.116,80.116,0,0,1,24.061,57.336Z" transform="translate(-36.803 -73.447)" fill="#00a5ff"/>
      <path id="Path_589" data-name="Path 589" d="M273.947,230.236h-81.4L249.886,172.9a80.116,80.116,0,0,1,24.061,57.336Z" transform="translate(-36.803 -73.447)" fill="#fff" opacity="0.3"/>
      <path id="Path_590" data-name="Path 590" d="M249.886,175.607,192.55,232.943V152.6h1.043A80.1,80.1,0,0,1,249.886,175.607Z" transform="translate(-36.803 -76.154)" fill="#00a5ff"/>
      <path id="Path_591" data-name="Path 591" d="M249.886,175.607,192.55,232.943V152.6h1.043A80.1,80.1,0,0,1,249.886,175.607Z" transform="translate(-36.803 -76.154)" fill="#fff" opacity="0.5"/>
      <path id="Path_592" data-name="Path 592" d="M199.173,152.6v80.343l-56.293-56.3A80.048,80.048,0,0,1,199.173,152.6Z" transform="translate(-43.426 -76.154)" fill="#00a5ff"/>
      <path id="Path_593" data-name="Path 593" d="M199.173,152.6v80.343l-56.293-56.3A80.048,80.048,0,0,1,199.173,152.6Z" transform="translate(-43.426 -76.154)" fill="#fff" opacity="0.7"/>
      <path id="Path_594" data-name="Path 594" d="M201.884,230.114H122.55a80.161,80.161,0,0,1,23.018-56.3Z" transform="translate(-46.137 -73.326)" fill="#00a5ff"/>
      <path id="Path_595" data-name="Path 595" d="M201.884,230.114H122.55a80.161,80.161,0,0,1,23.018-56.3Z" transform="translate(-46.137 -73.326)" fill="#fff" opacity="0.8"/>
      <path id="Path_596" data-name="Path 596" d="M201.881,223.49l-56.293,56.3a80.161,80.161,0,0,1-23.018-56.3Z" transform="translate(-46.135 -66.702)" fill="#00a5ff"/>
      <path id="Path_597" data-name="Path 597" d="M201.881,223.49l-56.293,56.3a80.161,80.161,0,0,1-23.018-56.3Z" transform="translate(-46.135 -66.702)" fill="#fff" opacity="0.9"/>
      <path id="Path_598" data-name="Path 598" d="M273.947,223.49a80.116,80.116,0,0,1-24.061,57.336L192.55,223.49Z" transform="translate(-36.803 -66.702)" fill="#00a5ff"/>
      <circle id="Ellipse_28" data-name="Ellipse 28" cx="49.482" cy="49.482" r="49.482" transform="translate(100.099 197.819) rotate(-80.91)" fill="#fff"/>
      <path id="Path_599" data-name="Path 599" d="M200.826,235.189a7.547,7.547,0,1,1-12.876-7.878c.33-.532,43.238-55.771,43.238-55.771S201.143,234.667,200.826,235.189Z" transform="translate(-37.565 -73.629)" fill="#3e5570"/>
      <circle id="Ellipse_29" data-name="Ellipse 29" cx="11.605" cy="11.605" r="11.605" transform="translate(140.373 156.786) rotate(-45)" fill="#3e5570"/>
      <text id="_200Mbps" data-name="200Mbps" transform="translate(117.134 217.147)" fill="#3e5570" font-size="17" font-family="Raleway-Bold, Raleway" font-weight="700"><tspan x="0" y="0">200Mbps</tspan></text>
      <path id="Path_600" data-name="Path 600" d="M147.28,189.1a56.236,56.236,0,0,1,17.5-16.422,68.171,68.171,0,0,1,22.519-8.681,69.316,69.316,0,0,1,24.129-.306,65.382,65.382,0,0,1,22.667,7.933,62.552,62.552,0,0,0-11.107-4.533,73.762,73.762,0,0,0-11.685-2.618,79.254,79.254,0,0,0-11.923-.725,70.675,70.675,0,0,0-11.866,1.3,69.27,69.27,0,0,0-22.281,8.33,62.991,62.991,0,0,0-9.724,6.947,52.135,52.135,0,0,0-8.228,8.772Z" transform="translate(-42.84 -74.797)" fill="#3e5570"/>
      <path id="Path_601" data-name="Path 601" d="M160.15,185.327a44.847,44.847,0,0,1,11.22-8.341,53.132,53.132,0,0,1,13.09-5.134,55.67,55.67,0,0,1,13.963-1.621,60.068,60.068,0,0,1,13.861,1.927,79.161,79.161,0,0,0-13.861-1.065,59.883,59.883,0,0,0-13.691,1.847,57.864,57.864,0,0,0-6.619,2.006c-2.153.816-4.25,1.813-6.324,2.833a64.524,64.524,0,0,0-6.041,3.4A38.388,38.388,0,0,0,160.15,185.327Z" transform="translate(-41.124 -73.804)" fill="#3e5570"/>
    </g>
    <g id="freepik--Rope--inject-18" transform="translate(244.839 196.352)">
      <path id="Path_602" data-name="Path 602" d="M221.694,180.546l.563-1.187c12.784,0,312.932-.123,315.267-.078v1.133C535.211,180.369,224.856,180.546,221.694,180.546Z" transform="translate(-222 -179.27)" fill="#95afc0"/>
    </g>
    <g id="freepik--Character--inject-18" transform="translate(558.674 143.151)">
      <path id="Path_603" data-name="Path 603" d="M518.456,453.055c2.414.782,71.151.181,73.758-1.507.986-.623,1.485-10.642,1.745-22.769,0-2.607.091-5.315.125-8.058L599.206,384l-45.957.272-3.887,36.72.272,8.069s-26.214,12-28.878,14.144S516.053,452.273,518.456,453.055Z" transform="translate(-496.447 -98.769)" fill="#f7a9a0"/>
      <path id="Path_604" data-name="Path 604" d="M518.456,448.734c2.414.782,71.151.181,73.758-1.507,1.2-.771,1.689-15.391,1.87-30.827l-44.722.261.272,8.069s-26.214,12-28.878,14.144S516.053,447.952,518.456,448.734Z" transform="translate(-496.447 -94.449)" fill="#fff"/>
      <path id="Path_605" data-name="Path 605" d="M518.456,447.786c2.414.782,71.151.181,73.758-1.507.986-.623,1.485-10.642,1.745-22.769l-44.325.272s-26.214,12-28.878,14.144S516.053,447,518.456,447.786Z" transform="translate(-496.447 -93.501)" fill="#00a5ff"/>
      <path id="Path_606" data-name="Path 606" d="M519.2,442.567c11.515-.385,58.027-.85,69.44-.351.091,0,.091.057,0,.068-11.413.635-57.914.714-69.44.465C518.994,442.748,518.994,442.567,519.2,442.567Z" transform="translate(-496.226 -91.035)" fill="#263238"/>
      <path id="Path_607" data-name="Path 607" d="M524.261,434a9.226,9.226,0,0,1,6.913,2.754,8.987,8.987,0,0,1,2.629,6.12c0,.068-.125.079-.136,0a10.722,10.722,0,0,0-9.407-8.749.068.068,0,1,1,0-.125Z" transform="translate(-495.543 -92.103)" fill="#263238"/>
      <path id="Path_608" data-name="Path 608" d="M541.941,424.791c4.613-.1,9.973,1.473,12.863,5.225.113.147-.091.306-.227.238a63.828,63.828,0,0,0-12.716-4.9.295.295,0,0,1,.079-.567Z" transform="translate(-493.208 -93.33)" fill="#263238"/>
      <path id="Path_609" data-name="Path 609" d="M538.815,426c4.613-.1,9.973,1.485,12.863,5.225.113.147-.091.306-.227.238a63.119,63.119,0,0,0-12.716-4.885.295.295,0,0,1,.079-.578Z" transform="translate(-493.629 -93.169)" fill="#263238"/>
      <path id="Path_610" data-name="Path 610" d="M535.688,427.3c4.6-.113,9.973,1.473,12.863,5.213.113.147-.091.306-.227.238a63.8,63.8,0,0,0-12.716-4.885.286.286,0,1,1,.079-.567Z" transform="translate(-494.05 -92.996)" fill="#263238"/>
      <path id="Path_611" data-name="Path 611" d="M532.548,428.55c4.613-.1,9.973,1.473,12.875,5.225.113.147-.091.295-.227.227a64.49,64.49,0,0,0-12.716-4.885.285.285,0,1,1,.068-.567Z" transform="translate(-494.468 -92.829)" fill="#263238"/>
      <path id="Path_612" data-name="Path 612" d="M578.224,432.55c5.179,0,5.236,8.013.057,8.047S573.044,432.584,578.224,432.55Z" transform="translate(-488.849 -92.295)" fill="#263238"/>
      <path id="Path_613" data-name="Path 613" d="M537.991,420.822c2.516,3.2,6.324,5.179,9.633,7.423a.567.567,0,0,0,.827-.374.125.125,0,0,0,.136-.136,24.049,24.049,0,0,0-4.3-11.764c-1.451-1.995-4.409-3.853-6.732-1.9S536.517,418.963,537.991,420.822ZM537.742,417c.419-5.021,4.975-1.2,6,.317a25.612,25.612,0,0,1,1.711,3.094q1.5,3.331,2.663,6.8c-1.564-1.2-3.207-2.267-4.805-3.4C541.4,422.454,537.515,419.768,537.742,417Z" transform="translate(-493.927 -94.87)" fill="#263238"/>
      <path id="Path_614" data-name="Path 614" d="M563.622,423.7c-.385-3.015-3.831-3.638-6.256-3.151a24.162,24.162,0,0,0-11.107,5.78.125.125,0,0,0,0,.193.567.567,0,0,0,.351.839c3.955.578,8.1,1.677,12.115,1.031C561.083,428,564,426.543,563.622,423.7Zm-10.846,3.309c-1.949-.238-3.876-.567-5.837-.737a71.84,71.84,0,0,1,6.562-3.23,27.108,27.108,0,0,1,3.4-1.133c1.779-.431,7.718-.17,4.624,3.819C559.8,427.937,555.122,427.291,552.776,427.008Z" transform="translate(-492.608 -93.915)" fill="#263238"/>
      <path id="Path_615" data-name="Path 615" d="M661.135,233.73s-52.247,91.438-53.618,97.773C605.442,341.33,595.05,438.2,595.05,438.2l-51.42-.317s8.523-85.4,17.238-113.606c4.76-15.391,29.784-57.143,41.526-77.736,1.043-1.847.737-10.268.737-10.268Z" transform="translate(-492.948 -118.806)" fill="#263238"/>
      <path id="Path_616" data-name="Path 616" d="M548,406.377c7.933-.159,32.119-.816,42.738,0,.079,0,.079.136,0,.147-3.638.567-34.76.193-42.738,0A.113.113,0,0,1,548,406.377Z" transform="translate(-492.368 -95.839)" fill="#455a64"/>
      <path id="Path_617" data-name="Path 617" d="M646.706,241.186c-3.4,5.519-7.061,10.937-10.563,16.422s-7,10.971-10.461,16.49q-10.336,16.558-20.2,33.388a101.054,101.054,0,0,0-8.126,16.286A99.22,99.22,0,0,0,592.9,341.26c-1.02,5.973-1.655,11.991-2.267,18.02q-.963,9.622-1.915,19.267-1.949,19.686-3.9,39.361c-.159,1.609-.317,3.219-.465,4.839a.217.217,0,0,0,.431,0c1.473-13.045,2.675-26.067,3.989-39.18q1-9.747,1.983-19.494c.612-6.052,1.19-12.1,2.051-18.133a120.251,120.251,0,0,1,3.695-17.533,84.5,84.5,0,0,1,7.469-17.091c6.3-11.175,12.977-22.168,19.652-33.128S637.152,256.1,644.2,245.232c.873-1.337,1.745-2.675,2.652-3.989C646.944,241.175,646.763,241.073,646.706,241.186Z" transform="translate(-487.518 -117.819)" fill="#455a64"/>
      <path id="Path_618" data-name="Path 618" d="M629.565,458.718c2.527-.181,67.57-27.472,69.361-30a.963.963,0,0,0,.091-.487c0-2.267-4.658-10.064-8.568-20.332-.249-.657-1.972-3.706-4.363-7.809-6.585-11.265-18.213-30.6-18.213-30.6L625.36,387.068l20.831,30.362,3.275,7.367s-19.8,20.967-21.454,23.959S627.037,458.9,629.565,458.718Z" transform="translate(-482.05 -100.704)" fill="#f7a9a0"/>
      <path id="Path_619" data-name="Path 619" d="M629.359,455.118c2.527-.181,67.57-27.472,69.361-30a.963.963,0,0,0,.091-.487c0-2.267-4.658-10.064-8.568-20.332-.249-.657-1.972-3.706-4.363-7.809L645.985,413.8l3.275,7.367s-19.8,20.967-21.454,23.959S626.831,455.3,629.359,455.118Z" transform="translate(-481.844 -97.104)" fill="#fff"/>
      <path id="Path_620" data-name="Path 620" d="M629.36,454.2c2.527-.181,67.57-27.472,69.361-30,.68-.963-2.357-9.849-8.477-20.819l-40.982,16.864s-19.8,20.967-21.466,23.959S626.833,454.38,629.36,454.2Z" transform="translate(-481.845 -96.185)" fill="#00a5ff"/>
      <path id="Path_621" data-name="Path 621" d="M629.022,448.754c10.529-4.681,53.46-22.553,64.238-26.384.079,0,.1,0,0,.068-10.336,4.862-53.414,22.395-64.193,26.486C628.806,449.015,628.738,448.845,629.022,448.754Z" transform="translate(-481.586 -93.653)" fill="#263238"/>
      <path id="Path_622" data-name="Path 622" d="M630.47,435.983a9.2,9.2,0,0,1,7.446,0,8.954,8.954,0,0,1,4.737,4.692c0,.068-.091.113-.125.057a10.7,10.7,0,0,0-12-4.533.111.111,0,0,1-.057-.215Z" transform="translate(-481.379 -91.942)" fill="#263238"/>
      <path id="Path_623" data-name="Path 623" d="M643.386,420.9c4.239-1.825,9.8-2.38,13.895,0,.159.091,0,.317-.125.306a63.668,63.668,0,0,0-13.6.238.295.295,0,0,1-.17-.544Z" transform="translate(-479.664 -94.06)" fill="#263238"/>
      <path id="Path_624" data-name="Path 624" d="M640.956,423.186c4.239-1.825,9.8-2.369,13.895,0,.159.1,0,.317-.136.306a64.318,64.318,0,0,0-13.6.238.295.295,0,0,1-.159-.544Z" transform="translate(-479.988 -93.754)" fill="#263238"/>
      <path id="Path_625" data-name="Path 625" d="M638.526,425.566c4.239-1.825,9.792-2.369,13.895,0,.159.091,0,.317-.136.306a63.571,63.571,0,0,0-13.6.238.295.295,0,0,1-.159-.544Z" transform="translate(-480.312 -93.437)" fill="#263238"/>
      <path id="Path_626" data-name="Path 626" d="M636.1,427.9c4.227-1.825,9.792-2.369,13.883,0,.159.091,0,.306-.125.295a64.4,64.4,0,0,0-13.6.238.283.283,0,0,1-.159-.533Z" transform="translate(-480.638 -93.126)" fill="#263238"/>
      <path id="Path_627" data-name="Path 627" d="M679.813,414.489c4.783-1.972,7.854,5.463,3.06,7.435S675.019,416.461,679.813,414.489Z" transform="translate(-475.11 -94.747)" fill="#263238"/>
      <path id="Path_628" data-name="Path 628" d="M638.126,418.689c3.536,2.006,7.809,2.425,11.719,3.264.4.091.657-.317.623-.657a.118.118,0,0,0,.079-.181,24.129,24.129,0,0,0-8.387-9.282c-2.108-1.315-5.542-1.927-6.959.748S636.074,417.51,638.126,418.689Zm-1.655-3.4c-1.5-4.817,4.159-2.992,5.667-1.961a25.95,25.95,0,0,1,2.754,2.267,69.186,69.186,0,0,1,5.009,5.315c-1.893-.533-3.808-.9-5.667-1.349-2.323-.589-6.936-1.666-7.763-4.318Z" transform="translate(-480.796 -95.207)" fill="#263238"/>
      <path id="Path_629" data-name="Path 629" d="M662.779,412.21c-1.485-2.641-4.907-1.927-6.97-.567a24.3,24.3,0,0,0-8.137,9.52.125.125,0,0,0,.091.17c0,.351.238.748.646.646,3.876-.941,8.137-1.473,11.617-3.581C662.1,417.106,664.229,414.658,662.779,412.21ZM654,419.35c-1.9.51-3.808.918-5.667,1.507a71.765,71.765,0,0,1,4.873-5.451,26.074,26.074,0,0,1,2.686-2.267c1.485-1.054,7.083-3.037,5.667,1.813-.68,2.573-5.259,3.729-7.514,4.341Z" transform="translate(-479.076 -95.245)" fill="#263238"/>
      <path id="Path_630" data-name="Path 630" d="M648.012,436.022l47.6-19.9s-60.373-86.451-60.895-92.934c-.453-5.746,24.934-56.089,25.818-70.675.918-15.742-6.8-27.835-15.221-35.281L597.34,238.5s4.193,8.557,12.467,13.09c0,0-24.582,58.129-22.928,75.934S648.012,436.022,648.012,436.022Z" transform="translate(-487.191 -121.007)" fill="#263238"/>
      <path id="Path_631" data-name="Path 631" d="M638.853,404.291c6.879-3.06,4.862-2.267,11.776-5.259,3.4-1.462,25.613-11.027,29.014-11.832a.079.079,0,0,1,0,.136c-2.947,1.859-25.353,11.039-28.764,12.467-6.97,2.845-5,1.949-12,4.726a.12.12,0,1,1-.023-.238Z" transform="translate(-480.265 -98.342)" fill="#455a64"/>
      <path id="Path_632" data-name="Path 632" d="M599.958,246.721a93.338,93.338,0,0,1,15.085,4.681.161.161,0,1,1-.1.306c-5.066-1.417-10.2-2.72-15.175-4.409C599.369,247.174,599.562,246.642,599.958,246.721Z" transform="translate(-485.492 -117.075)" fill="#455a64"/>
      <path id="Path_633" data-name="Path 633" d="M605.157,244.889a22.667,22.667,0,0,1,1.3,2.629,6.167,6.167,0,0,1,.669,2.21c0,.147-.193.181-.295.091a7.581,7.581,0,0,1-1.258-2.074c-.431-.8-.884-1.609-1.292-2.425a.487.487,0,0,1,.873-.431Z" transform="translate(-484.865 -117.351)" fill="#455a64"/>
      <path id="Path_634" data-name="Path 634" d="M605.156,241.328c-.317-.759-.623-1.519-.952-2.267s-.737-1.53-1.009-2.335c0-.125-.249,0-.193.091.306.759.51,1.564.771,2.346s.51,1.553.782,2.335a45.078,45.078,0,0,0,1.757,4.273,5.292,5.292,0,0,1-2.38-.385,4.284,4.284,0,0,1-1.7-1.983c-.442-.85-.85-1.711-1.315-2.55a17.411,17.411,0,0,1-1.394-2.845c0-.125-.249,0-.193.091a32.447,32.447,0,0,0,2.7,6.052c.465.748.839,1.53,1.689,1.813a7.107,7.107,0,0,0,2.811.159c.113,0,.272,0,.227-.193C606.29,244.388,605.757,242.812,605.156,241.328Z" transform="translate(-485.521 -118.414)" fill="#455a64"/>
      <path id="Path_635" data-name="Path 635" d="M609.117,249.237c-1.711,3.74-3.207,7.469-4.805,11.186s-3,7.321-4.42,11.016c-2.845,7.469-5.395,15.073-7.616,22.758q-1.632,5.667-3,11.481c-.907,3.865-2.992,11.934-2.992,15.867,0,6.743,9.837,24.174,11.639,27.79,1.133,2.267,1.462,1.915.929.793-1.519-3.162-10.789-23.279-11.231-28.334-.34-3.91,1.609-9.781,2.448-13.6s1.825-7.763,2.89-11.605c2.1-7.582,4.613-15.005,7.2-22.429,1.451-4.159,3.015-8.273,4.533-12.467s3.026-7.933,4.669-12.467C609.344,249.192,609.162,249.124,609.117,249.237Z" transform="translate(-487.261 -116.747)" fill="#455a64"/>
      <path id="Path_636" data-name="Path 636" d="M640.748,239.182c-.861-.306-2.04.238-2.913.4a26.28,26.28,0,0,1-3.4.385,27.63,27.63,0,0,1-3.4-.079,7.207,7.207,0,0,1-3.23-.8,16,16,0,0,1-4.159-4.307,25.164,25.164,0,0,1-3.275-5.587c0-.113-.215,0-.17.091.374,1.133.646,2.267,1.133,3.4a21.533,21.533,0,0,0,1.621,3.015,13.056,13.056,0,0,0,4.318,4.771c1.995,1.133,4.533,1.009,6.8.861a26.89,26.89,0,0,0,3.8-.555c.907-.2,2.425-.374,2.992-1.133a.283.283,0,0,0-.113-.453Z" transform="translate(-482.738 -119.419)" fill="#455a64"/>
      <path id="Path_637" data-name="Path 637" d="M676.857,406.675q-12-17.691-23.6-35.689t-22.848-36.267c-1.791-2.913-3.865-5.825-5.032-9.067-1.281-3.513-.623-6.947.453-10.415a177.486,177.486,0,0,1,7.117-18.655c2.675-6.109,5.576-12.127,8.421-18.133a175.071,175.071,0,0,0,7.933-18.281,31.156,31.156,0,0,0,1.065-18.383c-1.677-6.131-5.2-11.605-8.874-16.717-.975-1.337-1.961-2.675-2.935-4.023-.068-.1-.227,0-.147.125,4.046,5.327,7.933,10.959,10.4,17.238a30.352,30.352,0,0,1,2.1,9.7,31.282,31.282,0,0,1-1.439,9.962c-1.859,6.279-4.839,12.24-7.6,18.134s-5.757,12.047-8.489,18.133a193.158,193.158,0,0,0-7.4,18.734c-.929,2.845-1.972,5.814-1.87,8.851.113,3.321,1.734,6.29,3.4,9.067,7.3,12.115,14.869,24.072,22.542,35.95s15.527,23.8,23.494,35.508q1.5,2.267,3.015,4.443A.183.183,0,0,0,676.857,406.675Z" transform="translate(-482.217 -120.503)" fill="#455a64"/>
      <path id="Path_638" data-name="Path 638" d="M606.923,187.8c-10.2,18.814-24.7,40-35.927,40.8-10.143.7-27.11-6.6-45.583-14.393-3.661-1.553,9.883-29.467,13.6-27.4,7.378,4.023,23.313,15.107,28.175,15.447,2.074.147,20.185-16.433,32.516-25.67C614.7,165.333,610.981,180.3,606.923,187.8Z" transform="translate(-495.46 -126.967)" fill="#f7a9a0"/>
      <path id="Path_639" data-name="Path 639" d="M514.815,212.37c6.131,1.859,15.765,3.876,19.584,3.185,3.581-.669,10.313-27.574,7.174-29.6-9.758-6.3-25.4-7.933-31.473-5.451S508.457,210.432,514.815,212.37Z" transform="translate(-497.804 -126.052)" fill="#f7a9a0"/>
      <path id="Path_640" data-name="Path 640" d="M670.935,360.966c-5.961,0-11.821-2.7-17.454-8.013-11.73-11.1-16.433-65.87-19.267-98.6-.918-10.7-1.711-19.947-2.267-20.854-2.89-1.938-128.374-52.621-131.558-53.086l.057-1.133c2.267,0,129.507,51.42,132.227,53.369.816.578,1.235,4.613,2.7,21.613,2.618,30.43,7.48,87.063,18.9,97.875,5.667,5.327,11.469,7.933,17.385,7.684,6.993-.272,14.212-4.465,21.466-12.467l.839.759c-7.469,8.239-14.96,12.557-22.259,12.841Z" transform="translate(-498.714 -126.067)" fill="#95afc0"/>
      <path id="Path_641" data-name="Path 641" d="M521.3,178.99c2.267,2.527-2.017,3.751-2.017,3.751s6.585-.283,7.933,3.23-3.944,4.692-4.318,4.783c.351,0,6.4-.113,7.378,3.559s-4.454,4.216-4.805,4.239c.329.091,4.7,1.383,4.817,4.341.181,5.066-11.107,2.074-14.563,4.284,0,0,.612,5.474.657,5.667,0,0-8.319-1.8-11.05-6.641a3.547,3.547,0,0,1,.669-4.386s-3.581-.465-4.431-3.332c-.442-1.473,1.519-3.479,1.519-3.479a4.431,4.431,0,0,1-3.4-3.083c-.487-2.063,1.553-3.751,1.553-3.751s-2.516-1.745-2.323-4.023C499.227,179.568,516.431,173.618,521.3,178.99Z" transform="translate(-498.911 -126.389)" fill="#f7a9a0"/>
      <path id="Path_642" data-name="Path 642" d="M501.17,187.185v-.091a31.541,31.541,0,0,1,18.133-5.123.187.187,0,0,1,0,.374A64.6,64.6,0,0,0,501.17,187.185Z" transform="translate(-498.609 -125.71)" fill="#263238"/>
      <path id="Path_643" data-name="Path 643" d="M502.52,193.442c-.068,0-.113-.079-.057-.125a29.648,29.648,0,0,1,20.083-4.363c.249,0,.431.329.136.295C517.91,188.807,507.892,191.039,502.52,193.442Z" transform="translate(-498.44 -124.816)" fill="#263238"/>
      <path id="Path_644" data-name="Path 644" d="M525.08,196.367c-6.8-.9-13.305.487-19.732,2.867-.079,0-.113-.091,0-.136,2.833-2.017,7.083-3.105,10.461-3.672a18.235,18.235,0,0,1,9.361.7C525.227,196.175,525.227,196.39,525.08,196.367Z" transform="translate(-498.062 -123.956)" fill="#263238"/>
      <path id="Path_645" data-name="Path 645" d="M517.3,182.054a20.763,20.763,0,0,1,3.763.533,6.913,6.913,0,0,1,3.264,1.6,2.267,2.267,0,0,1,.68,1.5,3.253,3.253,0,0,1-.34,1.643,4.08,4.08,0,0,1-2.72,1.893l-2.709.635,2.765.351a11.334,11.334,0,0,1,3.559,1.009,4.091,4.091,0,0,1,2.267,2.4,2.267,2.267,0,0,1-1,2.754,7,7,0,0,1-3.4.941l-3.287.17,3.151.918a10.89,10.89,0,0,1,2.5,1.133,4.352,4.352,0,0,1,1.825,1.734,2.1,2.1,0,0,1-.238,2.2,4.6,4.6,0,0,1-2.267,1.133,35.835,35.835,0,0,1-5.667.714c-.963.079-1.927.159-2.89.295a6.9,6.9,0,0,0-2.777.8,7.548,7.548,0,0,1,2.8-.544c.963,0,1.927,0,2.89-.068a30.885,30.885,0,0,0,5.837-.431,5.417,5.417,0,0,0,2.811-1.326,2.981,2.981,0,0,0,.487-3.23,5.349,5.349,0,0,0-2.165-2.267,11.683,11.683,0,0,0-2.765-1.247l-.147,1.133a8.217,8.217,0,0,0,4.035-1.133A3.4,3.4,0,0,0,529,195.518a3.819,3.819,0,0,0,0-2.267,5.123,5.123,0,0,0-2.924-3.049,12.737,12.737,0,0,0-3.921-1.054v.986a4.84,4.84,0,0,0,3.208-2.471,4.046,4.046,0,0,0,.329-2.063,3.015,3.015,0,0,0-.952-1.859,7.151,7.151,0,0,0-3.627-1.5A17.351,17.351,0,0,0,517.3,182.054Z" transform="translate(-496.927 -125.701)" fill="#263238"/>
      <path id="Path_646" data-name="Path 646" d="M538.389,185.171s-22.961-18.541-25.818-7.049c-.85,3.4-.272,18.451,2.743,18.383,3.91-.068,4.839-6.392,4.794-10.449,0,0,6.233,6.959,12.376,4.057A15.867,15.867,0,0,0,538.389,185.171Z" transform="translate(-497.137 -126.722)" fill="#f7a9a0"/>
      <path id="Path_647" data-name="Path 647" d="M512.911,176.85a14.042,14.042,0,0,0-.884,4.046,30.006,30.006,0,0,0-.125,4.159,46.712,46.712,0,0,0,.918,8.3,7.665,7.665,0,0,0,.737,2.085,2.981,2.981,0,0,0,.827.963,2.05,2.05,0,0,0,.612.317,2.107,2.107,0,0,0,.691.091,3.4,3.4,0,0,0,2.267-.929,6.471,6.471,0,0,0,1.315-1.859,12.648,12.648,0,0,0,1.133-4.137,28.934,28.934,0,0,0,.193-4.193l-.85.317a17.4,17.4,0,0,0,2.425,2.074,15.742,15.742,0,0,0,2.754,1.575,10.564,10.564,0,0,0,3.049.816,8.171,8.171,0,0,0,3.105-.227,9.237,9.237,0,0,1-3.06-.1,11.332,11.332,0,0,1-2.833-1.043,13.953,13.953,0,0,1-2.539-1.655,15.674,15.674,0,0,1-2.165-2.074l-.8-.941v1.258a29.662,29.662,0,0,1-.318,4.035,12.317,12.317,0,0,1-1.133,3.774c-.567,1.133-1.507,2.119-2.573,2.119s-1.485-1.315-1.8-2.561-.544-2.652-.748-4-.385-2.709-.5-4.069a26.339,26.339,0,0,1,.306-8.137Z" transform="translate(-497.181 -126.391)" fill="#263238"/>
      <path id="Path_648" data-name="Path 648" d="M583.852,217.558l-16.252-20.4s16.5-15.867,26.906-22.282,14.892-2.618,8.455,11.265S583.852,217.558,583.852,217.558Z" transform="translate(-489.752 -127.058)" fill="#00a5ff"/>
      <path id="Path_649" data-name="Path 649" d="M571.084,192.422c2.493,2.493,4.771,5.236,7.027,7.933s4.409,5.44,6.437,8.3c0,.057,0,.125-.091.079-2.369-2.629-4.647-5.338-6.9-8.058s-4.533-5.372-6.573-8.183C570.936,192.445,571,192.366,571.084,192.422Z" transform="translate(-489.302 -124.317)" fill="#263238"/>
      <path id="Path_650" data-name="Path 650" d="M574.58,206.728l8.341,10.461s12.671-17.521,19.108-31.416c2.267-4.783,3.128-8.353,2.958-10.733Z" transform="translate(-488.821 -126.632)" opacity="0.1"/>
      <path id="Path_651" data-name="Path 651" d="M597.038,247.855l54.525-19.822s-23.2-42.591-40.234-54.015c-7.752-5.191-13.6-2.765-17.748,2.7-1.031,1.371-11.56,28.934-9.747,36.074,2.357,9.248,8.6,11.129,8.6,11.129Z" transform="translate(-487.615 -127.151)" fill="#00a5ff"/>
      <path id="Path_652" data-name="Path 652" d="M608.314,172.227l-15.3,5.44.261-.578L607.691,172Zm4.273,2.584-21.534,7.673c-.068.181-.136.374-.215.567l22.145-7.933Zm3.819,3.23-27.2,9.713-.2.567,27.79-9.928Zm3.4,3.4-32.38,11.526-.17.555L620.124,181.8Zm3.117,3.491-36.992,13.135a2.43,2.43,0,0,1-.147.544l37.4-13.362Zm2.935,3.559-41.186,14.733a4.027,4.027,0,0,1-.1.533l41.582-14.847Zm2.788,3.6-44.846,16v.5L629,192.468Zm2.686,3.627-47.5,17h0a1.859,1.859,0,0,0,.113.431l47.657-17Zm2.584,3.672L585.3,216.744c.079.136.147.283.215.419l48.734-17.374Zm2.527,3.706L587.71,220.473l.329.363,48.609-17.351Zm2.448,3.717L591.881,223.6a4.334,4.334,0,0,0,.555.215v.068l46.705-16.671a1.6,1.6,0,0,1-.272-.408Zm2.369,3.717-48.1,17.159.091.453L641.51,210.93ZM643.6,214.3l-49.606,17.771.091.453,49.765-17.748Zm2.267,3.774-51.068,18.224.091.465,51.25-18.292a2.381,2.381,0,0,1-.249-.374Zm2.267,3.8L595.643,240.6l.091.453,52.621-18.779a2.269,2.269,0,0,1-.227-.408Zm2.187,3.819-53.845,19.267.091.465,53.981-19.267a3.481,3.481,0,0,1-.227-.442Z" transform="translate(-487.591 -127.038)" fill="#fff"/>
      <path id="Path_653" data-name="Path 653" d="M609.216,211.42a55.98,55.98,0,0,0-7.933,2.108c-1.281.465-2.527.986-3.763,1.53-.623.272-1.247.533-1.87.771a8.6,8.6,0,0,1-2.04.6v.091a14.731,14.731,0,0,0,1.995-.227,15.339,15.339,0,0,0,1.87-.544c1.292-.465,2.573-.975,3.865-1.451,2.607-.952,5.213-1.893,7.933-2.652C609.4,211.613,609.341,211.4,609.216,211.42Z" transform="translate(-486.283 -121.781)" fill="#263238"/>
      <path id="Path_654" data-name="Path 654" d="M615.073,213a58.286,58.286,0,0,0-6.8.34c-1.133.113-2.267.306-3.332.521-.533.1-1.054.215-1.575.34s-1.133.34-1.723.465c-.057,0,0,.1,0,.091.555-.1,1.133-.1,1.677-.17l1.666-.215c1.133-.136,2.267-.261,3.4-.408,2.267-.295,4.454-.567,6.7-.782C615.209,213.125,615.186,213,615.073,213Z" transform="translate(-485.216 -121.571)" fill="#263238"/>
      <path id="Path_655" data-name="Path 655" d="M616.556,176.721c27.4,11.991,60.509,46.977,53.029,54.729-6.8,7.072-34.658,14.926-46.614,16.909-3.513.589-7.514-26.849-3.751-27.484,4.533-.759,15.719-3.683,16.139-3.9.884-.442-21.533-25.217-29.093-34.533C595.713,169.467,606.276,172.21,616.556,176.721Z" transform="translate(-485.179 -126.908)" fill="#f7a9a0"/>
      <path id="Path_656" data-name="Path 656" d="M586.055,223.533a4.239,4.239,0,0,0,2.2,4.318,6.29,6.29,0,0,0-1.6,3.967c0,2.6,4.114,3.683,4.114,3.683a7.729,7.729,0,0,0-1.02,4.454c.272,2.482,4.239,4.171,4.239,4.171a6.8,6.8,0,0,0,1.564,4.533c2.935,3.253,9.509,2.085,13.691,1.383s15.4-6.6,17.658-7.5l-4.25-26.906s-19.664-2.21-24.469-.691C594.135,216.212,586.621,220.269,586.055,223.533Z" transform="translate(-487.296 -121.383)" fill="#f7a9a0"/>
      <path id="Path_657" data-name="Path 657" d="M588.106,226.427c3.967-2.391,8.443-3.479,12.841-4.817.091,0,.136.125,0,.147-4.4,1.281-8.466,3.4-12.807,4.873a.113.113,0,0,1-.034-.2Z" transform="translate(-487.024 -120.422)" fill="#263238"/>
      <path id="Path_658" data-name="Path 658" d="M590.24,233.053a12.2,12.2,0,0,1,3.015-.986c1.133-.272,2.176-.521,3.275-.759,2.2-.476,4.4-.9,6.619-1.258.091,0,.147.136,0,.159-2.187.476-4.375.986-6.539,1.553l-3.241.873a14.484,14.484,0,0,1-3.083.714.159.159,0,0,1-.045-.295Z" transform="translate(-486.744 -119.297)" fill="#263238"/>
      <path id="Path_659" data-name="Path 659" d="M593.134,240.922a8.125,8.125,0,0,1,2.754-.737l3-.6c2.006-.419,4.012-.827,6-1.315.1,0,.147.136,0,.159-2.017.5-4.023,1.02-6.052,1.507l-2.981.691a7.933,7.933,0,0,1-2.754.4Z" transform="translate(-486.351 -118.201)" fill="#263238"/>
      <path id="Path_660" data-name="Path 660" d="M647.153,193.271,627.059,209.92s-16.229-16.173-22.826-26.441-2.913-14.835,11.1-8.681S647.153,193.271,647.153,193.271Z" transform="translate(-485.29 -127.036)" fill="#00a5ff"/>
      <path id="Path_661" data-name="Path 661" d="M622,202.953c2.448-2.539,5.145-4.873,7.809-7.185s5.349-4.533,8.16-6.607c0,0,.125,0,.079.091-2.573,2.425-5.236,4.76-7.933,7.061s-5.27,4.613-8.047,6.743C622,203.1,622,203.009,622,202.953Z" transform="translate(-482.498 -124.749)" fill="#263238"/>
      <path id="Path_662" data-name="Path 662" d="M608.74,188.79c1.541,1.5,3.015,3.037,4.533,4.533s2.924,3.117,4.375,4.681l4.3,4.749,4.239,4.794h-.147c.51-.374,1.02-.748,1.541-1.133-.453.442-.918.873-1.383,1.3l-.079.068-.091-.079c-1.609-1.417-3.094-2.947-4.6-4.465s-2.958-3.094-4.386-4.681A121.436,121.436,0,0,1,608.74,188.79Z" transform="translate(-484.266 -124.799)" fill="#263238"/>
      <path id="Path_663" data-name="Path 663" d="M615.62,196.314a20.89,20.89,0,0,1-5.27-4.284,17.9,17.9,0,0,1,2.822,1.915,19.259,19.259,0,0,1,2.448,2.369Z" transform="translate(-484.051 -124.367)" fill="#263238"/>
      <path id="Path_664" data-name="Path 664" d="M596.7,142.036c1.689-3.695,8.024-11.5,16.15-7.865,11.605,5.2,8.081,29.025,12.467,37.695,7.933,15.708,5.383,28.889-4.08,28.946-10.6.079-17.963-12.943-12.319-36.267,3.525-14.563.861-21.976-2.153-22.2s-5.429,3.105-5.429,3.105Z" transform="translate(-485.871 -132.208)" fill="#263238"/>
      <path id="Path_665" data-name="Path 665" d="M597.35,140.819a24.134,24.134,0,0,1,3.593-4.533A14.27,14.27,0,0,1,605.861,133a9.769,9.769,0,0,1,6-.363,12.614,12.614,0,0,1,5.293,2.845,14.132,14.132,0,0,1,3.4,4.941,25.99,25.99,0,0,1,1.575,5.667,52.14,52.14,0,0,1,.329,11.662,76.236,76.236,0,0,0-1.133-11.515,28.726,28.726,0,0,0-1.689-5.429,13.284,13.284,0,0,0-3.162-4.533,11.878,11.878,0,0,0-4.828-2.652,9.067,9.067,0,0,0-5.429.17,14.576,14.576,0,0,0-4.851,2.867,24.7,24.7,0,0,0-2.085,1.995A27.6,27.6,0,0,0,597.35,140.819Z" transform="translate(-485.785 -132.328)" fill="#263238"/>
      <path id="Path_666" data-name="Path 666" d="M609.7,153.79c-.4,2.346-1.054,4.647-1.621,6.947s-1.145,4.624-1.666,6.891a67.926,67.926,0,0,0-1.258,6.97,36.263,36.263,0,0,0-.272,7,18.485,18.485,0,0,0,1.6,6.687,19.891,19.891,0,0,0,4.1,5.565,14.8,14.8,0,0,0,5.95,3.5,13.135,13.135,0,0,0,3.4.578,11.527,11.527,0,0,0,1.768-.057,6.008,6.008,0,0,0,1.723-.374,8.568,8.568,0,0,1-3.491.725,13.712,13.712,0,0,1-3.593-.351,15.175,15.175,0,0,1-3.4-1.3,15.563,15.563,0,0,1-2.992-2.085,18.393,18.393,0,0,1-2.482-2.663l-.544-.737-.51-.748a12.471,12.471,0,0,1-.918-1.6,19.061,19.061,0,0,1-1.757-7.072,45.9,45.9,0,0,1,1.791-14.235c.6-2.267,1.3-4.59,2.029-6.857S609.115,156.079,609.7,153.79Z" transform="translate(-484.935 -129.466)" fill="#263238"/>
      <path id="Path_667" data-name="Path 667" d="M596.07,141.3a3.191,3.191,0,0,1,1.836-2.539c.7-.1,5.757,2.856,6.041,4.273s-2.267,2.323-2.267,2.323Z" transform="translate(-485.955 -131.47)" fill="#00a5ff"/>
      <path id="Path_668" data-name="Path 668" d="M603.5,178.184c-.091,1.133-4.261,9.067-9.327,9.622-1.655.17-2.981-8.806-2.981-8.806l-.249-.635L587.45,169.4l9.837-8.647,1.428-1.133s.793,2.516,1.745,5.667l.136.453a4.515,4.515,0,0,1,.17.51l.442,1.417c.1.363.2.725.306,1.133s.2.759.317,1.133A61.286,61.286,0,0,1,603.5,178.184Z" transform="translate(-487.105 -128.688)" fill="#f7a9a0"/>
      <path id="Path_669" data-name="Path 669" d="M600.461,165.281a19.267,19.267,0,0,1-9.52,13.124l-3.491-8.965,9.837-8.647,1.428-1.133S599.509,162.142,600.461,165.281Z" transform="translate(-487.105 -128.683)" fill="#263238"/>
      <path id="Path_670" data-name="Path 670" d="M575.031,157.391c-1.995,16.762,7.82,19.845,11.435,20.264,3.287.385,14.507,1.281,18.213-15.175s-3.457-22.667-10.914-23.97S576.958,140.629,575.031,157.391Z" transform="translate(-488.796 -131.537)" fill="#f7a9a0"/>
      <path id="Path_671" data-name="Path 671" d="M577.48,154.664c.4.079.771.091,1.133.136a1.847,1.847,0,0,0,1.213-.068.589.589,0,0,0,.238-.691,1.5,1.5,0,0,0-1.269-.816,2.188,2.188,0,0,0-1.553.283.646.646,0,0,0,.238,1.156Z" transform="translate(-488.502 -129.546)" fill="#263238"/>
      <path id="Path_672" data-name="Path 672" d="M587.541,154.145a9.07,9.07,0,0,1-1.133-.295,1.892,1.892,0,0,1-1.133-.521.612.612,0,0,1,0-.725,1.5,1.5,0,0,1,1.485-.283,2.266,2.266,0,0,1,1.337.839.635.635,0,0,1-.555.986Z" transform="translate(-487.411 -129.673)" fill="#263238"/>
      <path id="Path_673" data-name="Path 673" d="M585.117,157.58a.082.082,0,0,1,.079.1c-.113,1.133,0,2.482.952,2.935v.057C584.879,160.413,584.823,158.645,585.117,157.58Z" transform="translate(-487.435 -128.96)" fill="#263238"/>
      <path id="Path_674" data-name="Path 674" d="M586.225,156.59c1.847,0,1.734,3.695,0,3.706S584.672,156.59,586.225,156.59Z" transform="translate(-487.432 -129.092)" fill="#263238"/>
      <path id="Path_675" data-name="Path 675" d="M586.751,156.783c.306.227.612.6,1.009.657s.8-.317,1.133-.68h0c0,.7-.306,1.428-1.077,1.507s-1.133-.567-1.326-1.292C586.5,156.885,586.615,156.692,586.751,156.783Z" transform="translate(-487.233 -129.07)" fill="#263238"/>
      <path id="Path_676" data-name="Path 676" d="M579.555,157s-.091.057-.091.1c0,1.133-.17,2.471-1.224,2.822v.068C579.521,159.822,579.747,158.065,579.555,157Z" transform="translate(-488.333 -129.038)" fill="#263238"/>
      <path id="Path_677" data-name="Path 677" d="M578.7,155.9c-1.836-.181-2.074,3.513-.374,3.683S580.252,156.014,578.7,155.9Z" transform="translate(-488.475 -129.185)" fill="#263238"/>
      <path id="Path_678" data-name="Path 678" d="M578.06,156.106c-.306.181-.623.521-.975.521s-.68-.419-.907-.827h-.068c-.057.7.125,1.451.793,1.632s1.133-.408,1.326-1.133C578.253,156.242,578.185,156.027,578.06,156.106Z" transform="translate(-488.618 -129.198)" fill="#263238"/>
      <path id="Path_679" data-name="Path 679" d="M585.261,165.413c-.272.272-.533.646-.952.68a2.924,2.924,0,0,1-1.235-.272s-.079,0,0,0a1.553,1.553,0,0,0,1.473.612,1.235,1.235,0,0,0,.884-1.031C585.375,165.391,585.261,165.368,585.261,165.413Z" transform="translate(-487.693 -127.92)" fill="#263238"/>
      <path id="Path_680" data-name="Path 680" d="M581.142,162.868s-.306,1.7-.351,2.516c0,.068.193.113.465.147h0a3.865,3.865,0,0,0,3.8-1.269.091.091,0,0,0-.113-.125,5.723,5.723,0,0,1-3.559.85c0-.227.635-2.89.51-2.913a6.891,6.891,0,0,0-1.859.34c.555-3.57,1.666-7.027,2.165-10.585a.113.113,0,0,0-.215,0,58.761,58.761,0,0,0-2.811,11.333C579.125,163.525,580.813,162.993,581.142,162.868Z" transform="translate(-488.209 -129.738)" fill="#263238"/>
      <path id="Path_681" data-name="Path 681" d="M581.12,163.771a4.783,4.783,0,0,0,1.768,1.609,2.267,2.267,0,0,0,1.281.181c.952-.17,1.031-1.02.918-1.768a4.94,4.94,0,0,0-.329-1.133,6.109,6.109,0,0,1-3.638,1.111Z" transform="translate(-487.949 -128.283)" fill="#263238"/>
      <path id="Path_682" data-name="Path 682" d="M582.68,165.247a2.267,2.267,0,0,0,1.281.181c.952-.17,1.031-1.02.918-1.768a2.187,2.187,0,0,0-2.2,1.587Z" transform="translate(-487.741 -128.15)" fill="#ff99ba"/>
      <path id="Path_683" data-name="Path 683" d="M603,163.311c-4.148-.283-4.907-13.067-4.987-14.631,0,.986,0,6.233-.442,6.426a3.762,3.762,0,0,1-1.292-.283h0a13.327,13.327,0,0,0-.091-1.881,9.267,9.267,0,0,0-.329,1.757l-.759-.249a15.284,15.284,0,0,0-.26-4c-.1-.487-.306,1.734-.85,3.661a49.935,49.935,0,0,0-10.778-2.267c-1.031-.079-1.927-.091-2.72-.079,0-1.553.283-3.2.159-2.845a15.061,15.061,0,0,0-.748,2.856h-1.133c0-2.187,1.133-5.667.759-5.123a15.472,15.472,0,0,0-2.267,5.315c-1.5.238-1.915.51-1.949.125a18.3,18.3,0,0,1,5.939-11.118c5.338-4.692,15.719-5.565,21.284,2.142,0,0,4.692,3.3,5.27,8.364S605.389,163.469,603,163.311Z" transform="translate(-488.723 -131.654)" fill="#263238"/>
      <path id="Path_684" data-name="Path 684" d="M597.807,160.57s3.853-5.145,6.2-3.763-.657,8.931-3.5,9.894a2.856,2.856,0,0,1-3.774-1.655Z" transform="translate(-485.867 -129.095)" fill="#f7a9a0"/>
      <path id="Path_685" data-name="Path 685" d="M602.9,158.67v.079a7.185,7.185,0,0,0-3.865,4.386,1.575,1.575,0,0,1,2.369-.351v.1a1.734,1.734,0,0,0-1.949.555,8.543,8.543,0,0,0-.975,1.53c-.1.17-.408.068-.34-.136h0C598.141,162.285,600.249,158.84,602.9,158.67Z" transform="translate(-485.68 -128.815)" fill="#263238"/>
    </g>
  </g>
</svg>
