<svg xmlns="http://www.w3.org/2000/svg" width="13.406" height="16.001" viewBox="0 0 13.406 16.001">
  <g id="fi-rr-marker" transform="translate(-1.945 0.002)">
    <path id="Path_290" data-name="Path 290" d="M10.667,6a2.667,2.667,0,1,0,2.667,2.667A2.667,2.667,0,0,0,10.667,6Zm0,4A1.333,1.333,0,1,1,12,8.667,1.333,1.333,0,0,1,10.667,10Z" transform="translate(-2.018 -2.001)" fill="#fff"/>
    <path id="Path_291" data-name="Path 291" d="M8.648,16a3.514,3.514,0,0,1-2.874-1.467C3.234,11.028,1.945,8.393,1.945,6.7a6.7,6.7,0,1,1,13.406,0c0,1.692-1.289,4.327-3.829,7.831A3.514,3.514,0,0,1,8.648,16Zm0-14.546A5.255,5.255,0,0,0,3.4,6.7c0,1.34,1.262,3.818,3.553,6.977a2.1,2.1,0,0,0,3.393,0C12.635,10.52,13.9,8.042,13.9,6.7A5.255,5.255,0,0,0,8.648,1.453Z" fill="#fff"/>
  </g>
</svg>
