<svg xmlns="http://www.w3.org/2000/svg" width="15.998" height="16" viewBox="0 0 15.998 16">
  <path id="fi-rr-paper-plane" d="M15.414.588A1.977,1.977,0,0,0,13.547.055L2.88,2.3a3.33,3.33,0,0,0-1.9,5.654L2.124,9.1a.667.667,0,0,1,.2.472v2.112a1.977,1.977,0,0,0,.2.857l-.005,0,.017.017a2,2,0,0,0,.908.9l.017.017,0-.005a1.977,1.977,0,0,0,.857.2H6.43a.667.667,0,0,1,.471.195l1.145,1.145A3.309,3.309,0,0,0,10.392,16a3.366,3.366,0,0,0,1.07-.176,3.289,3.289,0,0,0,2.229-2.657l2.25-10.69A1.983,1.983,0,0,0,15.414.588ZM3.068,8.159,1.922,7.014A1.96,1.96,0,0,1,1.44,4.965,1.985,1.985,0,0,1,3.107,3.614L13.668,1.391,3.651,11.409V9.572A1.985,1.985,0,0,0,3.068,8.159Zm9.314,4.78A2,2,0,0,1,8.989,14.08L7.842,12.934a1.985,1.985,0,0,0-1.413-.585H4.593L14.611,2.334Z" transform="translate(-0.003 0)" fill="#01126c"/>
</svg>
