<svg xmlns="http://www.w3.org/2000/svg" width="30" height="30" viewBox="0 0 30 30">
  <g id="fi-rr-settings-sliders" transform="translate(0 0)">
    <path id="Path_179" data-name="Path 179" d="M1.25,5.938H4.67a4.66,4.66,0,0,0,8.994,0H28.75a1.25,1.25,0,1,0,0-2.5H13.664a4.66,4.66,0,0,0-8.994,0H1.25a1.25,1.25,0,0,0,0,2.5ZM9.166,2.5A2.187,2.187,0,1,1,6.979,4.688,2.187,2.187,0,0,1,9.166,2.5Z" fill="#01126c"/>
    <path id="Path_180" data-name="Path 180" d="M28.75,11.688H25.33a4.659,4.659,0,0,0-8.992,0H1.25a1.25,1.25,0,0,0,0,2.5H16.337a4.659,4.659,0,0,0,8.992,0h3.42a1.25,1.25,0,1,0,0-2.5Zm-7.916,3.437a2.187,2.187,0,1,1,2.187-2.187,2.187,2.187,0,0,1-2.187,2.187Z" transform="translate(0 2.062)" fill="#01126c"/>
    <path id="Path_181" data-name="Path 181" d="M28.75,19.938H13.664a4.66,4.66,0,0,0-8.994,0H1.25a1.25,1.25,0,1,0,0,2.5H4.67a4.66,4.66,0,0,0,8.994,0H28.75a1.25,1.25,0,1,0,0-2.5ZM9.166,23.375a2.187,2.187,0,1,1,2.187-2.187,2.187,2.187,0,0,1-2.187,2.187Z" transform="translate(0 4.125)" fill="#01126c"/>
  </g>
</svg>
