<svg id="fi-rr-shopping-cart-check" xmlns="http://www.w3.org/2000/svg" width="31.107" height="30" viewBox="0 0 31.107 30">
  <circle id="Ellipse_2" data-name="Ellipse 2" cx="2.074" cy="2.074" r="2.074" transform="translate(7.239 25.852)" fill="#01126c"/>
  <circle id="Ellipse_3" data-name="Ellipse 3" cx="2.074" cy="2.074" r="2.074" transform="translate(20.684 25.852)" fill="#01126c"/>
  <path id="Path_187" data-name="Path 187" d="M26.641,1.424a1.3,1.3,0,0,0-1.839,0L18.095,8.139,16.078,6.033a1.3,1.3,0,0,0-1.875,1.8l2.1,2.183a2.434,2.434,0,0,0,1.749.78h.043a2.435,2.435,0,0,0,1.736-.719l6.812-6.817a1.3,1.3,0,0,0,0-1.839Z" transform="translate(4.085 0.313)" fill="#01126c"/>
  <path id="Path_188" data-name="Path 188" d="M28.408,11.723A1.3,1.3,0,0,0,26.9,12.773l-.166.922A3.894,3.894,0,0,1,22.9,16.9H7.028L5.809,6.5h8.46a1.3,1.3,0,0,0,0-2.6H5.5l-.054-.458A3.9,3.9,0,0,0,1.585,0H1.3a1.3,1.3,0,0,0,0,2.6h.288A1.3,1.3,0,0,1,2.873,3.749L4.658,18.962A6.491,6.491,0,0,0,11.1,24.705H24.646a1.3,1.3,0,0,0,0-2.6H11.1a3.892,3.892,0,0,1-3.67-2.6H22.9a6.49,6.49,0,0,0,6.383-5.348l.166-.923A1.3,1.3,0,0,0,28.408,11.723Z" fill="#01126c"/>
</svg>
