<svg xmlns="http://www.w3.org/2000/svg" width="161.109" height="35.483" viewBox="0 0 161.109 35.483">
  <g id="Logo" transform="translate(-369.155 -506.401)">
    <g id="Group_2" data-name="Group 2" transform="translate(369.155 506.563)">
      <path id="Path_9" data-name="Path 9" d="M453.777,608.871h9.406L457.606,600H448.2Z" transform="translate(-433.217 -582.419)" fill="#00a5ff"/>
      <path id="Path_10" data-name="Path 10" d="M374.732,562.072h9.406l-5.577-8.871h-9.406Z" transform="translate(-369.155 -544.491)" fill="#00a5ff"/>
      <path id="Path_11" data-name="Path 11" d="M407.98,655.67h-9.406l5.577-8.871h9.406Z" transform="translate(-392.997 -620.348)" fill="#00a5ff"/>
      <path id="Path_12" data-name="Path 12" d="M428.2,515.272h-9.406l5.577-8.871h9.406Z" transform="translate(-409.383 -506.563)" fill="#00a5ff"/>
    </g>
    <g id="Group_3" data-name="Group 3" transform="translate(403.03 508.401)">
      <path id="Path_13" data-name="Path 13" d="M570,526.324h-2.834a5.941,5.941,0,0,1-2.986-.533,1.79,1.79,0,0,1-.786-1.639v-2.689a2.249,2.249,0,0,1,1.017-2.109c.706-.428,2.182-.645,4.39-.645a44.555,44.555,0,0,1,6.294.615l.218.034v-3.043l-.168-.019a55.444,55.444,0,0,0-6.09-.4c-3.559,0-6.046.463-7.392,1.377a4.858,4.858,0,0,0-2.063,4.3v1.889a6.035,6.035,0,0,0,1.453,4.366c.965.99,2.679,1.493,5.1,1.493h2.762a5.26,5.26,0,0,1,2.957.6,2.315,2.315,0,0,1,.778,1.974v3.052a2.028,2.028,0,0,1-1.211,2.1,10.062,10.062,0,0,1-3.76.548,36.482,36.482,0,0,1-7.374-.9l-.229-.049v3.343l.164.022a55.654,55.654,0,0,0,7.22.583c3.052,0,5.338-.494,6.792-1.467,1.479-.99,2.228-2.8,2.228-5.372v-1.708a5.993,5.993,0,0,0-1.363-4.33C574.211,526.789,572.49,526.324,570,526.324Z" transform="translate(-559.602 -515.895)" fill="#fff"/>
      <path id="Path_14" data-name="Path 14" d="M686.658,549.078a4,4,0,0,0-1.848-1.053,10.529,10.529,0,0,0-2.2-.425c-.671-.049-1.6-.073-2.757-.073s-2.087.025-2.758.073a10.513,10.513,0,0,0-2.2.425,4,4,0,0,0-1.848,1.053A5.508,5.508,0,0,0,671.985,551a9.24,9.24,0,0,0-.428,3.006v6.1a8.676,8.676,0,0,0,.542,3.345,3.573,3.573,0,0,0,1.839,1.9,8.281,8.281,0,0,0,2.492.725,30.882,30.882,0,0,0,3.42.146c1.135,0,2.063-.024,2.757-.073a10.933,10.933,0,0,0,2.219-.406,4.2,4.2,0,0,0,1.844-.993,4.821,4.821,0,0,0,1.062-1.815,8.54,8.54,0,0,0,.411-2.825V554a9.25,9.25,0,0,0-.429-3.006A5.519,5.519,0,0,0,686.658,549.078ZM679.85,563.7c-.938,0-1.653-.024-2.125-.072a4.385,4.385,0,0,1-1.359-.366,1.506,1.506,0,0,1-.844-.892,5.336,5.336,0,0,1-.243-1.787v-7.123c0-1.543.3-2.5.888-2.853a12.5,12.5,0,0,1,7.365,0c.589.349.888,1.309.888,2.853v7.123a5.343,5.343,0,0,1-.243,1.787,1.508,1.508,0,0,1-.844.892,4.391,4.391,0,0,1-1.359.366C681.5,563.673,680.787,563.7,679.85,563.7Z" transform="translate(-650.336 -541.75)" fill="#fff"/>
      <path id="Path_15" data-name="Path 15" d="M801.5,549.047h0c-1.109-1.009-2.882-1.521-5.269-1.521-3.154,0-5.081.523-5.843,1.593v-1.23h-3.613v25.525h3.65v-8.306a3.45,3.45,0,0,0,1.507.741,11.337,11.337,0,0,0,2.882.37c.965,0,1.8-.031,2.488-.092a10.757,10.757,0,0,0,2.22-.462,5.194,5.194,0,0,0,1.941-1.039,5,5,0,0,0,1.23-1.868,7.547,7.547,0,0,0,.486-2.833v-7.231A4.789,4.789,0,0,0,801.5,549.047Zm-6.65,1.22a7.327,7.327,0,0,1,3.641.643c.641.409.966,1.4.966,2.947v6.468c0,1.4-.318,2.306-.945,2.691a7.573,7.573,0,0,1-3.625.608,7.243,7.243,0,0,1-3.55-.606c-.6-.384-.911-1.29-.911-2.693v-6.468c0-1.573.3-2.572.88-2.968A6.944,6.944,0,0,1,794.847,550.267Z" transform="translate(-743.712 -542.013)" fill="#fff"/>
      <path id="Path_16" data-name="Path 16" d="M915.371,549.047h0c-1.109-1.009-2.882-1.521-5.269-1.521-3.154,0-5.081.523-5.843,1.593v-1.23h-3.613v25.525H904.3v-8.306a3.45,3.45,0,0,0,1.507.741,11.338,11.338,0,0,0,2.883.37c.965,0,1.8-.031,2.488-.092a10.754,10.754,0,0,0,2.22-.462,5.2,5.2,0,0,0,1.942-1.039,5,5,0,0,0,1.23-1.868,7.548,7.548,0,0,0,.486-2.833v-7.231A4.789,4.789,0,0,0,915.371,549.047Zm-6.65,1.22a7.326,7.326,0,0,1,3.641.643c.641.409.966,1.4.966,2.947v6.468c0,1.4-.318,2.306-.945,2.691a7.573,7.573,0,0,1-3.625.608,7.242,7.242,0,0,1-3.551-.606c-.6-.384-.911-1.29-.911-2.693v-6.468c0-1.573.3-2.572.88-2.968A6.942,6.942,0,0,1,908.721,550.267Z" transform="translate(-836.001 -542.013)" fill="#fff"/>
      <rect id="Rectangle_6" data-name="Rectangle 6" width="3.65" height="3.795" transform="translate(86.23 0)" fill="#fff"/>
      <rect id="Rectangle_7" data-name="Rectangle 7" width="3.65" height="17.967" transform="translate(86.23 6.138)" fill="#fff"/>
      <path id="Path_17" data-name="Path 17" d="M1059.07,563.486l-4.8-14.042H1050.3l6.868,18.032-2.833,7.493h3.825l8.964-25.525h-3.714Z" transform="translate(-957.287 -543.567)" fill="#fff"/>
      <path id="Path_18" data-name="Path 18" d="M1164.144,548.641c-.916-.75-2.833-1.115-5.862-1.115-1.935,0-4.129.11-6.522.328l-.172.016v2.787l.214-.028a47.121,47.121,0,0,1,6.008-.434,7.443,7.443,0,0,1,3.267.484,1.875,1.875,0,0,1,.795,1.8v2.609h-5.08c-2.565,0-4.257.377-5.173,1.153s-1.375,2.185-1.375,4.2c0,2.3.495,3.864,1.471,4.636s2.66,1.149,5.151,1.149c2.7,0,4.387-.45,5.116-1.369v1.006h3.541V553.239C1165.522,550.9,1165.072,549.4,1164.144,548.641Zm-5.164,15.02c-.418.024-.946.036-1.57.036h-.654a3.059,3.059,0,0,1-2.378-.675,4.1,4.1,0,0,1-.558-2.479c0-1.649.277-2.281.51-2.521s.884-.524,2.68-.524h4.862v4.607a1.1,1.1,0,0,1-.356.859,2.36,2.36,0,0,1-1.127.5A9.932,9.932,0,0,1,1158.981,563.661Z" transform="translate(-1038.288 -541.75)" fill="#fff"/>
    </g>
  </g>
</svg>
