<svg id="fi-rr-stats" xmlns="http://www.w3.org/2000/svg" width="30" height="30" viewBox="0 0 30 30">
  <path id="Path_182" data-name="Path 182" d="M28.75,27.5h-25A1.25,1.25,0,0,1,2.5,26.25v-25a1.25,1.25,0,1,0-2.5,0v25A3.75,3.75,0,0,0,3.75,30h25a1.25,1.25,0,1,0,0-2.5Z" fill="#01126c"/>
  <path id="Path_183" data-name="Path 183" d="M15.251,22.262A1.251,1.251,0,0,0,16.5,21.01V12.251a1.251,1.251,0,0,0-2.5,0V21.01A1.251,1.251,0,0,0,15.251,22.262Z" transform="translate(3.498 1.741)" fill="#01126c"/>
  <path id="Path_184" data-name="Path 184" d="M7.251,22.262A1.251,1.251,0,0,0,8.5,21.01V12.251a1.251,1.251,0,0,0-2.5,0V21.01A1.251,1.251,0,0,0,7.251,22.262Z" transform="translate(1.499 1.741)" fill="#01126c"/>
  <path id="Path_185" data-name="Path 185" d="M19.251,23.518A1.251,1.251,0,0,0,20.5,22.267V7.251a1.251,1.251,0,1,0-2.5,0V22.267A1.251,1.251,0,0,0,19.251,23.518Z" transform="translate(4.498 0.489)" fill="#01126c"/>
  <path id="Path_186" data-name="Path 186" d="M11.251,23.518A1.251,1.251,0,0,0,12.5,22.267V7.251a1.251,1.251,0,0,0-2.5,0V22.267A1.251,1.251,0,0,0,11.251,23.518Z" transform="translate(2.499 0.489)" fill="#01126c"/>
</svg>
