<svg xmlns="http://www.w3.org/2000/svg" width="35" height="34.993" viewBox="0 0 35 34.993">
  <path id="fi-rr-time-twenty-four" d="M21.29,31.057c-.437.33-.9.677-1.3,1.021h3.339a1.458,1.458,0,0,1,0,2.916H17.5a1.458,1.458,0,0,1-1.458-1.458c0-2.187,1.859-3.581,3.5-4.812,1.094-.819,2.333-1.75,2.333-2.479a1.458,1.458,0,1,0-2.916,0,1.458,1.458,0,0,1-2.916,0,4.374,4.374,0,1,1,8.749,0C24.79,28.433,22.931,29.827,21.29,31.057Zm12.248-9.186a1.458,1.458,0,0,0-1.458,1.458V27.7H30.622a1.458,1.458,0,0,1-1.458-1.458V23.329a1.458,1.458,0,1,0-2.916,0v2.916a4.374,4.374,0,0,0,4.374,4.374H32.08v2.916a1.458,1.458,0,0,0,2.916,0V23.329A1.458,1.458,0,0,0,33.539,21.871ZM18.957,17.5V10.206a1.458,1.458,0,1,0-2.916,0v5.833H11.667a1.458,1.458,0,1,0,0,2.916H17.5A1.458,1.458,0,0,0,18.957,17.5ZM33.539,2.916A1.458,1.458,0,0,0,32.08,4.374V7.835A17.5,17.5,0,1,0,11.136,33.8a1.48,1.48,0,0,0,.531.1,1.458,1.458,0,0,0,.531-2.817A14.581,14.581,0,1,1,30.092,10.206H26.248a1.458,1.458,0,1,0,0,2.916h4.374A4.374,4.374,0,0,0,35,8.748V4.374A1.458,1.458,0,0,0,33.539,2.916Z" transform="translate(0.003 -0.002)" fill="#00a5ff"/>
</svg>
