<svg xmlns="http://www.w3.org/2000/svg" width="30" height="30" viewBox="0 0 30 30">
  <path id="fi-rr-users" d="M9.375,16.25A5.625,5.625,0,1,1,15,10.625,5.625,5.625,0,0,1,9.375,16.25Zm0-8.75A3.125,3.125,0,1,0,12.5,10.625,3.125,3.125,0,0,0,9.375,7.5ZM18.75,28.75v-.625a9.375,9.375,0,0,0-18.75,0v.625a1.25,1.25,0,0,0,2.5,0v-.625a6.875,6.875,0,0,1,13.75,0v.625a1.25,1.25,0,0,0,2.5,0ZM30,22.5a8.75,8.75,0,0,0-14.584-6.521,1.25,1.25,0,1,0,1.668,1.863A6.25,6.25,0,0,1,27.5,22.5a1.25,1.25,0,0,0,2.5,0ZM21.875,11.25A5.625,5.625,0,1,1,27.5,5.625a5.625,5.625,0,0,1-5.625,5.625Zm0-8.75A3.125,3.125,0,1,0,25,5.625,3.125,3.125,0,0,0,21.875,2.5Z" fill="#01126c"/>
</svg>
